# xmcd
#
# Track frame offsets: 
#        150
#        19534
#        38832
#        59492
#        81385
#        96382
#        119091
#        137020
#        154543
#        174040
#        194177
#        215848
#        233835
#        253928
#        271673
#
# Disc length: 3788 seconds
#
# Revision: 4
# Processed by: cddbd v1.5.2PL0 Copyright (c) Steve Scherf et al.
# Submitted via: ExactAudioCopyFreeDBPlugin 1.0
#
DISCID=d90eca0f
DTITLE=Opus - Millennium Edition
DYEAR=2000
DGENRE=Rock
TTITLE0=A Night In Vienna
TTITLE1=Live Is Life
TTITLE2=Can You Hear Me
TTITLE3=Whiteland
TTITLE4=Over And Over (The Watersong)
TTITLE5=Every Now And Then
TTITLE6=When The Night Comes
TTITLE7=Somewhere - Somehow
TTITLE8=Faster And Faster
TTITLE9=Idolater
TTITLE10=On The Surface
TTITLE11=Very Nice Lady
TTITLE12=The Day Of The Dawn
TTITLE13=The Curtain Down
TTITLE14=Anytime At All
EXTD=
EXTT0=
EXTT1=
EXTT2=
EXTT3=
EXTT4=
EXTT5=
EXTT6=
EXTT7=
EXTT8=
EXTT9=
EXTT10=
EXTT11=
EXTT12=
EXTT13=
EXTT14=
PLAYORDER=
